<svg xmlns="http://www.w3.org/2000/svg" width="241" height="53.983" viewBox="0 0 241 53.983">
  <g id="Logo" transform="translate(-215 -53.006)">
    <path id="Logo-2" data-name="Logo" d="M251.366,53.225l.371-.219,9.886,16.975V64.663h5.18l4.22,7.043,4.22-7.043h5.181V82.854h-4.878V72.408l-4.523,7.121h-.1l-4.5-7.07v5.766l16.623,28.544-.37.221Zm-10.619,3.61,3.228,5.526-19.3,33.566,4.521-.04,16.791-29.929,20.556,35.19-28.619.252,2.321-5.61,16.65-.147L246.08,77.135l-13.64,24.314L215,101.6Zm189.794,38.92v-.017a3.066,3.066,0,1,1,6.13-.018v.018a3.066,3.066,0,1,1-6.13.017Zm.7-.035v.018a2.4,2.4,0,0,0,2.371,2.5,2.372,2.372,0,0,0,2.352-2.484v-.017a2.4,2.4,0,0,0-2.37-2.5A2.373,2.373,0,0,0,431.245,95.72Zm-20.52.035v-.017a3.03,3.03,0,0,1,3.013-3.136,3.146,3.146,0,0,1,2.24.805l-.437.519a2.547,2.547,0,0,0-1.828-.692,2.359,2.359,0,0,0-2.284,2.485v.018a2.333,2.333,0,0,0,2.378,2.519,2.822,2.822,0,0,0,1.734-.606V96.143h-1.828V95.53h2.48v2.415a3.621,3.621,0,0,1-2.413.927A2.96,2.96,0,0,1,410.725,95.755Zm-45.949,0v-.017a3.066,3.066,0,1,1,6.13-.018v.018a3.066,3.066,0,1,1-6.13.017Zm.7-.035v.018a2.4,2.4,0,0,0,2.37,2.5,2.372,2.372,0,0,0,2.353-2.484v-.017a2.4,2.4,0,0,0-2.371-2.5A2.372,2.372,0,0,0,365.48,95.72Zm75.971.511V92.707h.678v3.48c0,1.307.688,2.043,1.838,2.043,1.108,0,1.812-.676,1.812-2V92.707h.678v3.471a2.507,2.507,0,1,1-5,.052ZM359.17,98.77V92.71h.68v6.06Zm-72.68,0V92.71h.68v6.06Zm165.011,0V92.707h2.25c1.356,0,2.249.727,2.249,1.922v.017c0,1.309-1.083,1.984-2.361,1.984h-1.46v2.138ZM452.18,96h1.485c1,0,1.648-.536,1.648-1.334v-.016c0-.867-.643-1.317-1.614-1.317H452.18ZM425.3,98.768l-1.742-2.355H421.84v2.355h-.679V92.707h2.585a2.355,2.355,0,0,1,1.707.606,1.68,1.68,0,0,1,.464,1.194v.017a1.766,1.766,0,0,1-1.631,1.766l1.845,2.478Zm-3.46-2.97h1.845c.9,0,1.545-.468,1.545-1.247v-.018c0-.745-.566-1.2-1.536-1.2H421.84Zm-25.616,2.97V92.707h.679v5.428h3.383v.633Zm-5.354,0-.7-1.6h-3.271l-.713,1.6h-.7l2.74-6.1h.635l2.74,6.1Zm-3.709-2.217H389.9l-1.365-3.091Zm-6.84,2.217L376.44,93.8v4.97h-.661V92.707h.636l3.785,4.856V92.707h.661v6.061Zm-28.629,0v-5.43h-2.019v-.631H354.4v.631h-2.018v5.43Zm-6.17,0-.7-1.6h-3.271l-.713,1.6h-.7l2.739-6.1h.635l2.739,6.1Zm-3.708-2.217h2.739l-1.366-3.091Zm-6.84,2.217-3.881-4.97v4.97h-.661V92.707h.635l3.786,4.856V92.707h.661v6.061Zm-10.05,0-1.742-2.355h-1.717v2.355h-.679V92.707h2.584a2.356,2.356,0,0,1,1.708.606,1.68,1.68,0,0,1,.464,1.194v.017a1.766,1.766,0,0,1-1.631,1.766l1.845,2.478Zm-3.46-2.97h1.845c.9,0,1.545-.468,1.545-1.247v-.018c0-.745-.566-1.2-1.536-1.2h-1.854Zm-9.869,2.97V92.707h4.344v.623h-3.666V95.4h3.279v.623h-3.279v2.121h3.709v.625Zm-7.414,0v-5.43h-2.019v-.631h4.722v.631h-2.018v5.43Zm-7.269,0L293.03,93.8v4.97h-.661V92.707H293l3.786,4.856V92.707h.661v6.061ZM436.945,73.811v-.052A9.528,9.528,0,0,1,456,73.706v.052a9.528,9.528,0,0,1-19.056.052Zm5.029-.1v.052a4.668,4.668,0,0,0,4.524,4.912,4.587,4.587,0,0,0,4.5-4.86v-.052a4.672,4.672,0,0,0-4.549-4.911A4.582,4.582,0,0,0,441.974,73.706Zm-80.582.1v-.052a9.216,9.216,0,0,1,9.325-9.459,8.587,8.587,0,0,1,7.505,3.794l-3.689,2.936a4.7,4.7,0,0,0-3.866-2.13c-2.476,0-4.22,2.156-4.22,4.807v.052c0,2.729,1.744,4.86,4.22,4.86a4.8,4.8,0,0,0,3.993-2.209l3.689,2.7a8.857,8.857,0,0,1-7.835,4.106A9.112,9.112,0,0,1,361.391,73.811Zm-75.908,0v-.052a9.528,9.528,0,0,1,19.056-.052v.052a9.528,9.528,0,0,1-19.056.052Zm5.029-.1v.052a4.668,4.668,0,0,0,4.524,4.912,4.587,4.587,0,0,0,4.5-4.86v-.052a4.672,4.672,0,0,0-4.549-4.911A4.582,4.582,0,0,0,290.513,73.706Zm129.951,9.148V64.663h4.9V78.437h8.568v4.417Zm-18.1,0V64.663h4.9V78.437h8.567v4.417Zm-19.387,0V64.663h14.228v4.288H387.83v2.755h8.491v3.976H387.83v2.884h9.5v4.288Zm-31.673,0V64.663h4.928V82.854Zm-14.99,0V69.081h-5.307V64.663h15.517v4.418h-5.306V82.854Zm-14.283,0-7.557-9.979v9.979h-4.852V64.663H314.2l7.278,9.616V64.663h4.852V82.854Z" fill="#fff"/>
  </g>
</svg>
